<?xml version="1.0" encoding="utf-8"?>
<!-- Generator: Adobe Illustrator 15.1.0, SVG Export Plug-In  -->
<!DOCTYPE svg PUBLIC "-//W3C//DTD SVG 1.1//EN" "http://www.w3.org/Graphics/SVG/1.1/DTD/svg11.dtd" [
	<!ENTITY ns_flows "http://ns.adobe.com/Flows/1.0/">
]>
<svg version="1.1"
	 xmlns="http://www.w3.org/2000/svg" xmlns:xlink="http://www.w3.org/1999/xlink" xmlns:a="http://ns.adobe.com/AdobeSVGViewerExtensions/3.0/"
	 x="0px" y="0px" width="155px" height="154px" viewBox="327.169 25.667 155 154"
	 overflow="visible" enable-background="new 327.169 25.667 155 154" xml:space="preserve">
<defs>
</defs>
<rect display="none" fill="#231F20" width="589" height="424"/>
<path fill="#FFFFFF" d="M400.646,61.962c-1.012-3.164-3.978-5.46-7.479-5.46h-5.564h-4.969l-7.227,7.057l-10.203,9.965v-8.68v-0.487
	v-7.812c-3.963,0.397-7.056,3.743-7.056,7.812V91.52c0,3.734,2.608,6.857,6.1,7.652c0.312,0.071,0.633,0.119,0.956,0.154v-0.24
	V91.52v-2.572v-6.656l17.402,17.085h9.984l-7.104-7.06l-14.674-14.406l14.694-14.352h7.659c0.438,0,0.796,0.357,0.796,0.798v10.074
	h-14.378v7.056h14.378v2.498v7.535v7.566v0.24c0.324-0.035,0.646-0.083,0.954-0.154c2.714-0.62,4.892-2.633,5.729-5.259
	c0.24-0.752,0.373-1.557,0.373-2.393v-7.535v-2.498v-7.056V64.357C401.02,63.522,400.887,62.718,400.646,61.962z"/>
<path fill="#FFFFFF" d="M444.263,106.318c-0.317-0.074-0.63-0.123-0.956-0.154v0.238v7.567v19.333v7.832
	c0,0.441-0.359,0.8-0.797,0.8h-10.019v-8.631v-20.131v-6.74v-0.277v-0.038h-5.099l-0.166,0.315l-1.793,3.417l-1.74,3.323
	l-9.146,17.452v-16.654v-7.567v-0.238c-0.322,0.032-0.646,0.081-0.955,0.154c-2.709,0.62-4.888,2.636-5.724,5.255
	c-0.242,0.756-0.377,1.56-0.377,2.396v27.164c0,0.802,0.12,1.571,0.345,2.3c0.007,0.031,0.02,0.061,0.032,0.095
	c0.777,2.441,2.727,4.368,5.188,5.119l1.49-2.892l1.977-3.822l8.909-17.263v16.463c0,0.269,0.016,0.536,0.038,0.8
	c0.375,3.701,3.32,6.641,7.02,7.015v0.036h0.797h9.222c4.333,0,7.854-3.515,7.854-7.851v-27.164
	C450.364,110.234,447.757,107.118,444.263,106.318z"/>
<path fill="#FFFFFF" d="M429.543,81.465c4.729,0,8.032-3.255,8.032-7.914v-9.993v-7.057h-7.055h-3.688h-11.486
	c-3.499,0-6.469,2.297-7.477,5.46c-0.242,0.756-0.377,1.56-0.377,2.395V91.52c0,0.836,0.135,1.641,0.377,2.393
	c0.836,2.626,3.015,4.64,5.724,5.259c0.309,0.071,0.633,0.119,0.955,0.154v-0.24V91.52v-8.85V64.357
	c0-0.441,0.358-0.798,0.798-0.798h3.675h11.5v9.993c0,0.679-0.04,0.858-0.978,0.858h-15.657v7.056h12.151H429.543z"/>
<path fill="#FFFFFF" d="M443.307,56.545v7.812v8.372V91.52c0,0.443-0.359,0.797-0.797,0.797h-16.473v-8.141h-7.055v7.344v0.797
	h0.038c0.024,0.226,0.062,0.441,0.1,0.66c0.549,2.918,2.71,5.264,5.523,6.082c0.45,0.131,0.914,0.228,1.394,0.275v0.043h16.473
	c0.604,0,1.188-0.075,1.753-0.205c3.494-0.795,6.102-3.918,6.102-7.652V64.357C450.364,60.288,447.271,56.942,443.307,56.545z"/>
<path fill="#FFFFFF" d="M400.646,111.596c-0.837-2.62-3.015-4.636-5.729-5.257c-0.563-0.128-1.148-0.203-1.75-0.203h-9.367
	c-4.007,0-7.307,3.002-7.788,6.88v-0.024c-0.038,0.322-0.065,0.646-0.065,0.977v10.052h0.065v0.022h-0.065v-0.022h-10.742v-10.052
	v-7.567v-0.238c-0.323,0.032-0.645,0.081-0.956,0.154c-3.491,0.795-6.1,3.916-6.1,7.651v27.164c0,4.068,3.093,7.412,7.056,7.815
	v-7.815v-10.055h10.742v0.022v2.647v7.343v0.042v0.756h0.041c0.002,0.049,0.012,0.099,0.019,0.144
	c0.004,0.024,0.004,0.053,0.006,0.075v0.025c0.009,0.054,0.026,0.104,0.033,0.159c0.016,0.085,0.024,0.172,0.04,0.256
	c0.021,0.112,0.062,0.218,0.086,0.326c0.735,3.272,3.484,5.784,6.897,6.099v-0.024h10.099c0.268,0,0.531-0.019,0.796-0.051v0.045
	c3.146-0.319,5.75-2.473,6.683-5.394c0.24-0.756,0.373-1.558,0.373-2.395v-10.07v-7.056V113.99
	C401.02,113.158,400.887,112.355,400.646,111.596z M393.168,141.889h-10.099v-7.233v-21.461h10.099c0.438,0,0.796,0.354,0.796,0.795
	v20.667v6.435C393.964,141.536,393.605,141.889,393.168,141.889z"/>
<rect x="102.691" y="26.54" fill="none" width="294.015" height="365.078"/>
<circle fill="none" stroke="#FFFFFF" stroke-width="3" stroke-miterlimit="10" cx="404.257" cy="102.743" r="74.474"/>
</svg>
